<svg width="28" height="28" viewBox="0 0 28 28" fill="none" xmlns="http://www.w3.org/2000/svg">
<path fill-rule="evenodd" clip-rule="evenodd" d="M9.33624 5.44141H14.6071C15.8588 5.4414 16.8582 5.44139 17.6655 5.50701C18.4934 5.5743 19.2056 5.71544 19.8601 6.04689C20.9262 6.58675 21.7922 7.45275 22.332 8.51884C22.6635 9.17338 22.8046 9.88551 22.8719 10.7134C22.9375 11.5207 22.9375 12.5201 22.9375 13.7718V13.8573C22.9375 15.109 22.9375 16.1084 22.8719 16.9157C22.8046 17.7436 22.6635 18.4558 22.332 19.1103C21.7922 20.1764 20.9262 21.0424 19.8601 21.5823C19.2056 21.9137 18.4934 22.0549 17.6655 22.1221C16.8582 22.1878 15.8588 22.1878 14.6071 22.1877H9.33626C8.08458 22.1878 7.08518 22.1878 6.27789 22.1221C5.44996 22.0549 4.73783 21.9137 4.08329 21.5823C3.0172 21.0424 2.15121 20.1764 1.61135 19.1103C1.2799 18.4558 1.13875 17.7436 1.07146 16.9157C1.00584 16.1084 1.00585 15.109 1.00586 13.8574V13.7718C1.00585 12.5201 1.00584 11.5207 1.07146 10.7134C1.13875 9.88551 1.2799 9.17338 1.61135 8.51884C2.15121 7.45275 3.0172 6.58675 4.08329 6.04689C4.73783 5.71544 5.44996 5.5743 6.27789 5.50701C7.08518 5.44139 8.08457 5.4414 9.33624 5.44141ZM6.43817 7.47908C5.73191 7.53648 5.30758 7.64472 4.97715 7.81205C4.28683 8.16162 3.72608 8.72237 3.3765 9.4127C3.20917 9.74313 3.10093 10.1675 3.04353 10.8737C2.9852 11.5914 2.98443 12.5104 2.98443 13.8146C2.98443 15.1188 2.9852 16.0377 3.04353 16.7554C3.10093 17.4617 3.20917 17.886 3.3765 18.2165C3.72608 18.9068 4.28683 19.4675 4.97715 19.8171C5.30758 19.9844 5.73191 20.0927 6.43817 20.1501C7.15589 20.2084 8.07485 20.2092 9.37903 20.2092H14.5643C15.8685 20.2092 16.7875 20.2084 17.5052 20.1501C18.2115 20.0927 18.6358 19.9844 18.9662 19.8171C19.6566 19.4675 20.2173 18.9068 20.5669 18.2165C20.7342 17.886 20.8424 17.4617 20.8999 16.7554C20.9582 16.0377 20.9589 15.1188 20.9589 13.8146C20.9589 12.5104 20.9582 11.5914 20.8999 10.8737C20.8424 10.1675 20.7342 9.74313 20.5669 9.4127C20.2173 8.72237 19.6566 8.16162 18.9662 7.81205C18.6358 7.64472 18.2115 7.53648 17.5052 7.47908C16.7875 7.42074 15.8685 7.41998 14.5644 7.41998H9.37903C8.07485 7.41998 7.15589 7.42074 6.43817 7.47908Z" fill="#007AFF"/>
<path d="M8.88939 13.8811L11.9712 9.60448C12.2992 9.14927 13.0181 9.38132 13.0181 9.9424V12.0039C13.0181 12.3231 13.2769 12.5819 13.5961 12.5819H14.9466C15.4417 12.5819 15.7076 13.1636 15.3839 13.538L11.6284 17.881C11.219 18.3544 10.4542 17.9303 10.6389 17.3324L11.1907 15.5456C11.3055 15.1738 11.0276 14.7971 10.6384 14.7971H9.35833C8.88709 14.7971 8.61389 14.2635 8.88939 13.8811Z" fill="#007AFF"/>
<path d="M25.3837 15.8C26.1092 15.4109 26.6017 14.6522 26.6017 13.78C26.6017 12.9078 26.1092 12.1492 25.3837 11.76C24.8211 11.4582 24.2734 12 24.2734 12.6384V14.9216C24.2734 15.56 24.8211 16.1018 25.3837 15.8Z" fill="#007AFF"/>
</svg>
