<svg width="24" height="24" viewBox="0 0 24 24" fill="none" xmlns="http://www.w3.org/2000/svg">
<path fill-rule="evenodd" clip-rule="evenodd" d="M12.0001 8.00147C13.1002 8.00147 14.0002 7.10147 14.0002 6.00147C14.0002 4.90146 13.1002 4.00146 12.0001 4.00146C10.9 4.00146 10 4.90146 10 6.00147C10 7.10147 10.9 8.00147 12.0001 8.00147ZM12.0001 10.0015C10.9 10.0015 10 10.9015 10 12.0015C10 13.1015 10.9 14.0015 12.0001 14.0015C13.1002 14.0015 14.0002 13.1015 14.0002 12.0015C14.0002 10.9015 13.1002 10.0015 12.0001 10.0015ZM10 18.0015C10 16.9015 10.9 16.0015 12.0001 16.0015C13.1002 16.0015 14.0002 16.9015 14.0002 18.0015C14.0002 19.1015 13.1002 20.0015 12.0001 20.0015C10.9 20.0015 10 19.1015 10 18.0015Z" fill="#007AFF"/>
</svg>
