<svg width="20" height="20" viewBox="0 0 20 20" fill="none" xmlns="http://www.w3.org/2000/svg">
<path d="M13.8659 18.3337H6.13252C5.29016 18.303 4.50549 17.8979 3.99281 17.2288C3.48012 16.5597 3.29299 15.6967 3.48252 14.8753L3.68252 13.9253C3.91255 12.6393 5.01804 11.6942 6.32418 11.667H13.6742C14.9803 11.6942 16.0858 12.6393 16.3159 13.9253L16.5159 14.8753C16.7054 15.6967 16.5182 16.5597 16.0056 17.2288C15.4929 17.8979 14.7082 18.303 13.8659 18.3337Z" fill="#007AFF"/>
<path d="M10.4158 10.0003H9.58252C7.74157 10.0003 6.24918 8.50795 6.24918 6.667V4.467C6.24696 3.72372 6.54125 3.01024 7.06683 2.48465C7.59242 1.95907 8.3059 1.66478 9.04918 1.667H10.9492C11.6925 1.66478 12.406 1.95907 12.9315 2.48465C13.4571 3.01024 13.7514 3.72372 13.7492 4.467V6.667C13.7492 7.55106 13.398 8.39891 12.7729 9.02403C12.1478 9.64915 11.2999 10.0003 10.4158 10.0003Z" fill="#007AFF"/>
</svg>
