<svg width="57" height="57" viewBox="0 0 57 57" fill="none" xmlns="http://www.w3.org/2000/svg">
<circle cx="28.5" cy="28.5" r="28.5" fill="white"/>
<g clip-path="url(#clip0_1327_4247)">
<path d="M25.9368 18.3175L36.6631 24.4691V24.5579C37.2395 24.8915 37.718 25.3707 38.0507 25.9476C38.3833 26.5245 38.5584 27.1787 38.5584 27.8446C38.5584 28.5106 38.3833 29.1648 38.0507 29.7417C37.718 30.3186 37.2395 30.7978 36.6631 31.1314L25.9368 37.283C25.3595 37.6165 24.7047 37.7926 24.038 37.7937C23.0308 37.7937 22.0649 37.3936 21.3527 36.6815C20.6406 35.9693 20.2405 35.0034 20.2405 33.9962V21.6487C20.233 20.9785 20.403 20.3182 20.7332 19.735C21.0634 19.1518 21.5422 18.6663 22.1207 18.328C22.6993 17.9896 23.3571 17.8104 24.0273 17.8086C24.6976 17.8068 25.3564 17.9823 25.9368 18.3175Z" fill="black"/>
</g>
<defs>
<clipPath id="clip0_1327_4247">
<rect width="18.5143" height="21.6" fill="white" transform="translate(20 17)"/>
</clipPath>
</defs>
</svg>
