<svg width="18" height="18" viewBox="0 0 18 18" fill="none" xmlns="http://www.w3.org/2000/svg">
<path fill-rule="evenodd" clip-rule="evenodd" d="M2.25 7.80375C2.25 4.7365 4.7365 2.25 7.80375 2.25C10.871 2.25 13.3575 4.7365 13.3575 7.80375C13.3575 10.871 10.871 13.3575 7.80375 13.3575C4.7365 13.3575 2.25 10.871 2.25 7.80375ZM7.80375 0.75C3.90807 0.75 0.75 3.90807 0.75 7.80375C0.75 11.6994 3.90807 14.8575 7.80375 14.8575C9.47759 14.8575 11.0152 14.2745 12.2247 13.3005L16.0028 17.0634C16.2962 17.3557 16.7711 17.3548 17.0634 17.0613C17.3557 16.7678 17.3548 16.2929 17.0613 16.0006L13.287 12.2414C14.2691 11.0294 14.8575 9.48527 14.8575 7.80375C14.8575 3.90807 11.6994 0.75 7.80375 0.75Z" fill="#EBEBF5" fill-opacity="0.6"/>
</svg>
