<svg width="184" height="128" viewBox="0 0 184 128" fill="none" xmlns="http://www.w3.org/2000/svg">
<path d="M88.2281 9.99274C89.3943 6.82867 89.9774 5.24663 90.8257 4.79406C91.5605 4.40198 92.4395 4.40198 93.1743 4.79406C94.0226 5.24663 94.6057 6.82867 95.7719 9.99274L96.334 11.5177C96.6711 12.4323 96.8396 12.8896 97.1302 13.2326C97.387 13.5357 97.7108 13.7735 98.0754 13.9267C98.4879 14.1001 98.9702 14.1208 99.9349 14.1623L101.543 14.2314C104.881 14.3748 106.549 14.4465 107.237 15.1221C107.833 15.7074 108.105 16.5524 107.963 17.38C107.799 18.3354 106.491 19.3848 103.875 21.4837L102.613 22.4953C101.857 23.102 101.479 23.4054 101.246 23.7907C101.04 24.1313 100.916 24.516 100.885 24.9139C100.849 25.364 100.979 25.8341 101.238 26.7743L101.67 28.342C102.566 31.5947 103.015 33.2211 102.591 34.0912C102.225 34.845 101.514 35.3672 100.691 35.4867C99.742 35.6245 98.3503 34.6911 95.567 32.8242L94.2255 31.9245C93.421 31.3848 93.0187 31.115 92.5841 31.0102C92.2001 30.9175 91.7999 30.9175 91.4159 31.0102C90.9813 31.115 90.579 31.3848 89.7745 31.9245L88.433 32.8242C85.6497 34.6911 84.258 35.6245 83.3086 35.4867C82.4861 35.3672 81.775 34.845 81.4085 34.0912C80.9854 33.2211 81.4336 31.5947 82.33 28.342L82.762 26.7744C83.0211 25.8341 83.1506 25.364 83.115 24.9139C83.0835 24.516 82.9598 24.1313 82.754 23.7907C82.5211 23.4054 82.1429 23.102 81.3865 22.4953L80.1255 21.4837C77.5089 19.3848 76.2006 18.3354 76.0369 17.38C75.8951 16.5524 76.1668 15.7074 76.7627 15.1221C77.4506 14.4465 79.1193 14.3748 82.4566 14.2314L84.0651 14.1623C85.0298 14.1208 85.5121 14.1001 85.9246 13.9267C86.2892 13.7735 86.613 13.5357 86.8698 13.2326C87.1604 12.8896 87.3289 12.4323 87.666 11.5177L88.2281 9.99274Z" fill="#55A6FF"/>
<path d="M160.228 63.9927C161.394 60.8287 161.977 59.2466 162.826 58.7941C163.561 58.402 164.439 58.402 165.174 58.7941C166.023 59.2466 166.606 60.8287 167.772 63.9927L168.334 65.5177C168.671 66.4323 168.84 66.8896 169.13 67.2326C169.387 67.5357 169.711 67.7735 170.075 67.9267C170.488 68.1001 170.97 68.1208 171.935 68.1623L173.543 68.2314C176.881 68.3748 178.549 68.4465 179.237 69.1221C179.833 69.7074 180.105 70.5524 179.963 71.38C179.799 72.3354 178.491 73.3848 175.875 75.4837L174.613 76.4953C173.857 77.102 173.479 77.4054 173.246 77.7907C173.04 78.1313 172.916 78.516 172.885 78.9139C172.849 79.364 172.979 79.8341 173.238 80.7743L173.67 82.342C174.566 85.5947 175.015 87.2211 174.591 88.0912C174.225 88.845 173.514 89.3672 172.691 89.4867C171.742 89.6245 170.35 88.6911 167.567 86.8242L166.226 85.9245C165.421 85.3848 165.019 85.115 164.584 85.0102C164.2 84.9175 163.8 84.9175 163.416 85.0102C162.981 85.115 162.579 85.3848 161.774 85.9245L160.433 86.8242C157.65 88.6911 156.258 89.6245 155.309 89.4867C154.486 89.3672 153.775 88.845 153.409 88.0912C152.985 87.2211 153.434 85.5947 154.33 82.342L154.762 80.7744C155.021 79.8341 155.151 79.364 155.115 78.9139C155.084 78.516 154.96 78.1313 154.754 77.7907C154.521 77.4054 154.143 77.102 153.387 76.4953L152.125 75.4837C149.509 73.3848 148.201 72.3354 148.037 71.38C147.895 70.5524 148.167 69.7074 148.763 69.1221C149.451 68.4465 151.119 68.3748 154.457 68.2314L156.065 68.1623C157.03 68.1208 157.512 68.1001 157.925 67.9267C158.289 67.7735 158.613 67.5357 158.87 67.2326C159.16 66.8896 159.329 66.4323 159.666 65.5177L160.228 63.9927Z" fill="#55A6FF"/>
<path d="M16.2281 97.9927C17.3943 94.8287 17.9774 93.2466 18.8257 92.7941C19.5605 92.402 20.4395 92.402 21.1743 92.7941C22.0226 93.2466 22.6057 94.8287 23.7719 97.9927L24.334 99.5177C24.6711 100.432 24.8396 100.89 25.1302 101.233C25.387 101.536 25.7108 101.774 26.0754 101.927C26.4879 102.1 26.9702 102.121 27.9349 102.162L29.5434 102.231C32.8807 102.375 34.5494 102.447 35.2373 103.122C35.8333 103.707 36.1049 104.552 35.9631 105.38C35.7994 106.335 34.4911 107.385 31.8745 109.484L30.6135 110.495C29.8571 111.102 29.479 111.405 29.246 111.791C29.0402 112.131 28.9165 112.516 28.885 112.914C28.8494 113.364 28.9789 113.834 29.238 114.774L29.67 116.342C30.5664 119.595 31.0146 121.221 30.5915 122.091C30.225 122.845 29.5139 123.367 28.6914 123.487C27.742 123.625 26.3503 122.691 23.567 120.824L22.2255 119.924C21.421 119.385 21.0187 119.115 20.5841 119.01C20.2001 118.917 19.7999 118.917 19.4159 119.01C18.9813 119.115 18.579 119.385 17.7745 119.924L16.433 120.824C13.6497 122.691 12.258 123.625 11.3086 123.487C10.4861 123.367 9.77503 122.845 9.40851 122.091C8.98544 121.221 9.43362 119.595 10.33 116.342L10.762 114.774C11.0211 113.834 11.1506 113.364 11.115 112.914C11.0835 112.516 10.9598 112.131 10.754 111.791C10.5211 111.405 10.1429 111.102 9.38655 110.495L8.12548 109.484C5.50892 107.385 4.20063 106.335 4.03694 105.38C3.89514 104.552 4.16675 103.707 4.76272 103.122C5.45065 102.447 7.11931 102.375 10.4566 102.231L12.0651 102.162C13.0298 102.121 13.5121 102.1 13.9246 101.927C14.2892 101.774 14.613 101.536 14.8698 101.233C15.1604 100.89 15.3289 100.432 15.666 99.5177L16.2281 97.9927Z" fill="#55A6FF"/>
</svg>
