<svg width="19" height="22" viewBox="0 0 19 22" fill="none" xmlns="http://www.w3.org/2000/svg">
<path fill-rule="evenodd" clip-rule="evenodd" d="M7.34593 1.29529C7.88011 0.494582 8.86692 0.000948344 9.93529 0L9.95026 0.0259058C11.6035 0.0259058 12.9437 1.18575 12.9437 2.61648V7.94012H15.9971C17.1029 7.9371 18.1206 8.46196 18.6438 9.30511C19.167 10.1483 19.1104 11.1724 18.4966 11.9685L11.6865 20.8541C10.9527 21.7991 9.59203 22.2187 8.33309 21.8883C7.07415 21.5579 6.21204 20.5549 6.20841 19.4164V15.7248H3.00539C1.9338 15.7285 0.941667 15.2362 0.404026 14.434C-0.133615 13.6318 -0.134745 12.6421 0.401064 11.8389L7.34593 1.29529ZM10.4742 2.12798C10.3306 2.00615 10.1364 1.93945 9.93529 1.94293C9.66124 1.94374 9.41159 2.07939 9.29169 2.29266L2.34682 12.8104C2.21978 13.0113 2.22483 13.2554 2.36009 13.4523C2.49536 13.6491 2.74072 13.7695 3.00539 13.7689H6.95678C7.78341 13.7689 8.45352 14.3488 8.45352 15.0642V19.4034C8.4575 19.6848 8.67097 19.9317 8.98175 20.0145C9.29252 20.0972 9.62948 19.9969 9.81555 19.7661L16.6556 10.8675C16.8116 10.6679 16.8266 10.4098 16.6946 10.1977C16.5626 9.98555 16.3054 9.85436 16.027 9.85714H12.1954C11.3687 9.85714 10.6986 9.27722 10.6986 8.56185V2.59058C10.6987 2.41654 10.6178 2.24982 10.4742 2.12798Z" />
</svg>
