<svg width="29" height="28" viewBox="0 0 29 28" fill="none" xmlns="http://www.w3.org/2000/svg">
<path fill-rule="evenodd" clip-rule="evenodd" d="M14.4566 3.09961H14.5426C16.3315 3.0996 17.7328 3.0996 18.8556 3.1971C19.9988 3.29636 20.9383 3.50187 21.7786 3.96385C22.9405 4.60258 23.8966 5.55872 24.5354 6.72057C24.9974 7.56092 25.2029 8.50045 25.3021 9.64363C25.3996 10.7665 25.3996 12.1677 25.3996 13.9566V14.0426C25.3996 15.8315 25.3996 17.2328 25.3021 18.3556C25.2029 19.4988 24.9974 20.4383 24.5354 21.2786C23.8966 22.4405 22.9405 23.3966 21.7786 24.0354C20.9383 24.4974 19.9988 24.7029 18.8556 24.8021C17.7328 24.8996 16.3315 24.8996 14.5426 24.8996H14.4566C12.6677 24.8996 11.2665 24.8996 10.1436 24.8021C9.00045 24.7029 8.06092 24.4974 7.22057 24.0354C6.05872 23.3966 5.10258 22.4405 4.46385 21.2786C4.00187 20.4383 3.79636 19.4988 3.6971 18.3556C3.5996 17.2328 3.5996 15.8315 3.59961 14.0426V13.9566C3.5996 12.1677 3.5996 10.7665 3.6971 9.64363C3.79636 8.50045 4.00187 7.56092 4.46385 6.72057C5.10258 5.55872 6.05872 4.60258 7.22057 3.96385C8.06092 3.50187 9.00045 3.29636 10.1436 3.1971C11.2665 3.0996 12.6677 3.0996 14.4566 3.09961ZM10.2993 4.99035C9.27483 5.07931 8.61694 5.25027 8.08773 5.5412C7.2252 6.01538 6.51538 6.7252 6.0412 7.58773C5.75027 8.11694 5.57931 8.77483 5.49035 9.79934C5.4004 10.8352 5.39961 12.1585 5.39961 13.9996C5.39961 15.8408 5.4004 17.164 5.49035 18.1999C5.57931 19.2244 5.75027 19.8823 6.0412 20.4115C6.51538 21.274 7.2252 21.9838 8.08773 22.458C8.61694 22.749 9.27483 22.9199 10.2993 23.0089C11.3352 23.0988 12.6585 23.0996 14.4996 23.0996C16.3408 23.0996 17.664 23.0988 18.6999 23.0089C19.7244 22.9199 20.3823 22.749 20.9115 22.458C21.774 21.9838 22.4838 21.274 22.958 20.4115C23.249 19.8823 23.4199 19.2244 23.5089 18.1999C23.5988 17.164 23.5996 15.8408 23.5996 13.9996C23.5996 12.1585 23.5988 10.8352 23.5089 9.79934C23.4199 8.77483 23.249 8.11694 22.958 7.58773C22.4838 6.7252 21.774 6.01538 20.9115 5.5412C20.3823 5.25027 19.7244 5.07931 18.6999 4.99035C17.664 4.9004 16.3408 4.89961 14.4996 4.89961C12.6585 4.89961 11.3352 4.9004 10.2993 4.99035ZM10.7154 7.01265H10.7885C11.1944 7.01263 11.5574 7.01261 11.8578 7.03983C12.1795 7.069 12.5168 7.13499 12.8395 7.32127C13.1897 7.52346 13.4805 7.81425 13.6826 8.16444C13.8689 8.4871 13.9349 8.82438 13.9641 9.14615C13.9913 9.44655 13.9913 9.80947 13.9913 10.2154V10.2885C13.9913 10.6944 13.9913 11.0574 13.9641 11.3578C13.9349 11.6795 13.8689 12.0168 13.6826 12.3395C13.4805 12.6897 13.1897 12.9805 12.8395 13.1826C12.5168 13.3689 12.1795 13.4349 11.8578 13.4641C11.5574 13.4913 11.1944 13.4913 10.7885 13.4913H10.7154C10.3095 13.4913 9.94655 13.4913 9.64615 13.4641C9.32438 13.4349 8.9871 13.3689 8.66444 13.1826C8.31425 12.9805 8.02346 12.6897 7.82127 12.3395C7.63499 12.0168 7.569 11.6795 7.53983 11.3578C7.51261 11.0574 7.51263 10.6944 7.51265 10.2885V10.2154C7.51263 9.80947 7.51261 9.44655 7.53983 9.14615C7.569 8.82438 7.63499 8.4871 7.82127 8.16444C8.02346 7.81425 8.31425 7.52346 8.66444 7.32127C8.9871 7.13499 9.32438 7.069 9.64615 7.03983C9.94655 7.01261 10.3095 7.01263 10.7154 7.01265ZM9.56444 8.88012C9.56435 8.88017 9.5645 8.88009 9.56444 8.88012C9.48789 8.92432 9.42432 8.98789 9.38012 9.06444C9.38009 9.0645 9.38017 9.06435 9.38012 9.06444C9.37741 9.06903 9.34999 9.11552 9.33248 9.30862C9.31352 9.51792 9.31265 9.79812 9.31265 10.252C9.31265 10.7058 9.31352 10.986 9.33248 11.1953C9.34999 11.3884 9.37728 11.4346 9.37999 11.4392C9.42419 11.5158 9.48789 11.5796 9.56444 11.6238C9.56903 11.6265 9.61552 11.6539 9.80862 11.6714C10.0179 11.6904 10.2981 11.6913 10.752 11.6913C11.2058 11.6913 11.486 11.6904 11.6953 11.6714C11.8884 11.6539 11.9347 11.6266 11.9392 11.6239C12.0158 11.5797 12.0796 11.516 12.1238 11.4395C12.1265 11.4349 12.1539 11.3884 12.1714 11.1953C12.1904 10.986 12.1913 10.7058 12.1913 10.252C12.1913 9.79812 12.1904 9.51792 12.1714 9.30862C12.1539 9.11552 12.1266 9.06926 12.1239 9.06467C12.0797 8.98811 12.016 8.92432 11.9395 8.88012C11.9349 8.87741 11.8884 8.84999 11.6953 8.83248C11.486 8.81352 11.2058 8.81265 10.752 8.81265C10.2981 8.81265 10.0179 8.81352 9.80862 8.83248C9.61552 8.84999 9.56903 8.87741 9.56444 8.88012ZM18.2107 7.01265H18.2838C18.6898 7.01263 19.0527 7.01261 19.3531 7.03983C19.6748 7.069 20.0121 7.13499 20.3348 7.32127C20.685 7.52346 20.9758 7.81426 21.1779 8.16444C21.3642 8.4871 21.4302 8.82438 21.4594 9.14615C21.4866 9.44655 21.4866 9.80947 21.4866 10.2154V10.2885C21.4866 10.6944 21.4866 11.0574 21.4594 11.3578C21.4302 11.6795 21.3642 12.0168 21.1779 12.3395C20.9758 12.6897 20.685 12.9805 20.3348 13.1826C20.0121 13.3689 19.6748 13.4349 19.3531 13.4641C19.0527 13.4913 18.6897 13.4913 18.2838 13.4913H18.2107C17.8048 13.4913 17.4419 13.4913 17.1415 13.4641C16.8197 13.4349 16.4824 13.3689 16.1598 13.1826C15.8096 12.9805 15.5188 12.6897 15.3166 12.3395C15.1303 12.0168 15.0643 11.6795 15.0351 11.3578C15.0079 11.0574 15.0079 10.6944 15.008 10.2885V10.2154C15.0079 9.80947 15.0079 9.44656 15.0351 9.14615C15.0643 8.82438 15.1303 8.4871 15.3166 8.16444C15.5188 7.81425 15.8096 7.52345 16.1598 7.32127C16.4824 7.13499 16.8197 7.069 17.1415 7.03983C17.4419 7.01261 17.8048 7.01263 18.2107 7.01265ZM17.0598 8.88012C16.9832 8.92432 16.9196 8.98789 16.8754 9.06444C16.8727 9.06903 16.8453 9.11551 16.8278 9.30862C16.8088 9.51792 16.808 9.79812 16.808 10.252C16.808 10.7058 16.8088 10.986 16.8278 11.1953C16.8453 11.3884 16.8726 11.4347 16.8753 11.4392C16.9195 11.5158 16.9832 11.5796 17.0598 11.6238C17.0643 11.6265 17.1108 11.6539 17.3039 11.6714C17.5132 11.6904 17.7934 11.6913 18.2473 11.6913C18.7011 11.6913 18.9813 11.6904 19.1906 11.6714C19.3837 11.6539 19.43 11.6266 19.4346 11.6239C19.5111 11.5797 19.5749 11.516 19.6191 11.4395C19.6218 11.4349 19.6492 11.3884 19.6667 11.1953C19.6857 10.986 19.6866 10.7058 19.6866 10.252C19.6866 9.79812 19.6857 9.51792 19.6667 9.30862C19.6492 9.11552 19.6219 9.06926 19.6192 9.06467C19.575 8.98811 19.5113 8.92432 19.4348 8.88012C19.4302 8.87741 19.3837 8.84999 19.1906 8.83248C18.9813 8.81352 18.7011 8.81265 18.2473 8.81265C17.7934 8.81265 17.5132 8.81352 17.3039 8.83248C17.1108 8.84999 17.0643 8.87741 17.0598 8.88012ZM10.7154 14.508H10.7885C11.1944 14.5079 11.5574 14.5079 11.8578 14.5351C12.1795 14.5643 12.5168 14.6303 12.8395 14.8166C13.1897 15.0188 13.4805 15.3096 13.6826 15.6598C13.8689 15.9824 13.9349 16.3197 13.9641 16.6415C13.9913 16.9419 13.9913 17.3048 13.9913 17.7107V17.7838C13.9913 18.1897 13.9913 18.5527 13.9641 18.8531C13.9349 19.1748 13.8689 19.5121 13.6826 19.8348C13.4805 20.185 13.1897 20.4758 12.8395 20.6779C12.5168 20.8642 12.1795 20.9302 11.8578 20.9594C11.5574 20.9866 11.1944 20.9866 10.7885 20.9866H10.7154C10.3095 20.9866 9.94655 20.9866 9.64615 20.9594C9.32438 20.9302 8.9871 20.8642 8.66444 20.6779C8.31426 20.4758 8.02346 20.185 7.82127 19.8348C7.63499 19.5121 7.569 19.1748 7.53983 18.8531C7.51261 18.5527 7.51263 18.1898 7.51265 17.7838V17.7107C7.51263 17.3048 7.51261 16.9419 7.53983 16.6415C7.569 16.3197 7.63499 15.9824 7.82127 15.6598C8.02345 15.3096 8.31425 15.0188 8.66444 14.8166C8.9871 14.6303 9.32438 14.5643 9.64615 14.5351C9.94656 14.5079 10.3095 14.5079 10.7154 14.508ZM9.56444 16.3754C9.48789 16.4196 9.42432 16.4832 9.38012 16.5598C9.37741 16.5643 9.34999 16.6108 9.33248 16.8039C9.31352 17.0132 9.31265 17.2934 9.31265 17.7473C9.31265 18.2011 9.31352 18.4813 9.33248 18.6906C9.34999 18.8837 9.37728 18.93 9.37999 18.9346C9.42419 19.0111 9.48789 19.0749 9.56444 19.1191C9.56903 19.1218 9.61552 19.1492 9.80862 19.1667C10.0179 19.1857 10.2981 19.1866 10.752 19.1866C11.2058 19.1866 11.486 19.1857 11.6953 19.1667C11.8884 19.1492 11.9347 19.1219 11.9392 19.1192C12.0158 19.075 12.0796 19.0113 12.1238 18.9348C12.1265 18.9302 12.1539 18.8837 12.1714 18.6906C12.1904 18.4813 12.1913 18.2011 12.1913 17.7473C12.1913 17.2934 12.1904 17.0132 12.1714 16.8039C12.1539 16.6108 12.1266 16.5646 12.1239 16.56C12.0797 16.4834 12.016 16.4196 11.9395 16.3754C11.9349 16.3727 11.8884 16.3453 11.6953 16.3278C11.486 16.3088 11.2058 16.308 10.752 16.308C10.2981 16.308 10.0179 16.3088 9.80862 16.3278C9.61551 16.3453 9.56903 16.3727 9.56444 16.3754ZM18.2107 14.508H18.2838C18.6897 14.5079 19.0527 14.5079 19.3531 14.5351C19.6748 14.5643 20.0121 14.6303 20.3348 14.8166C20.685 15.0188 20.9758 15.3096 21.1779 15.6598C21.3642 15.9824 21.4302 16.3197 21.4594 16.6415C21.4866 16.9419 21.4866 17.3048 21.4866 17.7107V17.7838C21.4866 18.1897 21.4866 18.5527 21.4594 18.8531C21.4302 19.1748 21.3642 19.5121 21.1779 19.8348C20.9758 20.185 20.685 20.4758 20.3348 20.6779C20.0121 20.8642 19.6748 20.9302 19.3531 20.9594C19.0527 20.9866 18.6897 20.9866 18.2838 20.9866H18.2107C17.8048 20.9866 17.4419 20.9866 17.1415 20.9594C16.8197 20.9302 16.4824 20.8642 16.1598 20.6779C15.8096 20.4758 15.5188 20.185 15.3166 19.8348C15.1303 19.5121 15.0643 19.1748 15.0351 18.8531C15.0079 18.5527 15.0079 18.1897 15.008 17.7838V17.7107C15.0079 17.3048 15.0079 16.9419 15.0351 16.6415C15.0643 16.3197 15.1303 15.9824 15.3166 15.6598C15.5188 15.3096 15.8096 15.0188 16.1598 14.8166C16.4824 14.6303 16.8197 14.5643 17.1415 14.5351C17.4419 14.5079 17.8048 14.5079 18.2107 14.508ZM17.0598 16.3754C16.9832 16.4196 16.9196 16.4832 16.8754 16.5598C16.8727 16.5643 16.8453 16.6108 16.8278 16.8039C16.8088 17.0132 16.808 17.2934 16.808 17.7473C16.808 18.2011 16.8088 18.4813 16.8278 18.6906C16.8453 18.8837 16.8726 18.93 16.8753 18.9346C16.9195 19.0111 16.9832 19.0749 17.0598 19.1191C17.0643 19.1218 17.1108 19.1492 17.3039 19.1667C17.5132 19.1857 17.7934 19.1866 18.2473 19.1866C18.7011 19.1866 18.9813 19.1857 19.1906 19.1667C19.3837 19.1492 19.43 19.1219 19.4346 19.1192C19.5111 19.075 19.5749 19.0113 19.6191 18.9348C19.6218 18.9302 19.6492 18.8837 19.6667 18.6906C19.6857 18.4813 19.6866 18.2011 19.6866 17.7473C19.6866 17.2934 19.6857 17.0132 19.6667 16.8039C19.6492 16.6108 19.6219 16.5646 19.6192 16.56C19.575 16.4834 19.5113 16.4196 19.4348 16.3754C19.4302 16.3727 19.3837 16.3453 19.1906 16.3278C18.9813 16.3088 18.7011 16.308 18.2473 16.308C17.7934 16.308 17.5132 16.3088 17.3039 16.3278C17.1108 16.3453 17.0643 16.3727 17.0598 16.3754Z"/>
</svg>
