<svg width="29" height="28" viewBox="0 0 29 28" fill="none" xmlns="http://www.w3.org/2000/svg">
<path fill-rule="evenodd" clip-rule="evenodd" d="M11.4666 6.0474C11.2862 6.01931 11.0897 6.01681 10.5058 6.01681H10.0176C8.817 6.01681 7.98232 6.01784 7.33842 6.08149C6.70882 6.14373 6.35911 6.25881 6.09962 6.42588C5.79114 6.62449 5.52877 6.88686 5.33016 7.19533C5.16309 7.45483 5.04801 7.80454 4.98577 8.43413C4.92212 9.07804 4.9211 9.91271 4.9211 11.1133V15.9065C4.9211 17.5675 4.92301 18.7227 5.04009 19.5935C5.1537 20.4385 5.36068 20.8799 5.67369 21.1929C5.9867 21.5059 6.42805 21.7129 7.27305 21.8265C8.14393 21.9436 9.29914 21.9455 10.9601 21.9455H18.0415C19.7025 21.9455 20.8577 21.9436 21.7286 21.8265C22.5736 21.7129 23.0149 21.5059 23.328 21.1929C23.641 20.8799 23.8479 20.4385 23.9615 19.5935C24.0786 18.7227 24.0805 17.5675 24.0805 15.9065V14.7723C24.0805 13.1819 24.0788 12.0759 23.9707 11.2387C23.8657 10.4254 23.6738 9.99594 23.3858 9.68863C23.3479 9.64817 23.3087 9.60894 23.2682 9.57102C22.9609 9.28299 22.5315 9.09115 21.7181 8.98613C20.881 8.87804 19.7749 8.87628 18.1845 8.87628H17.3629C17.3405 8.87628 17.3184 8.87628 17.2965 8.87629C16.8042 8.87639 16.4604 8.87646 16.1252 8.82427C15.4292 8.71592 14.7697 8.44091 14.2029 8.02268C13.9299 7.82124 13.688 7.57691 13.3416 7.22707C13.3263 7.21156 13.3107 7.19584 13.2949 7.1799C12.884 6.76509 12.744 6.62721 12.597 6.51878C12.2637 6.27284 11.8759 6.11112 11.4666 6.0474ZM10.5722 4.21681C11.0645 4.21671 11.4083 4.21664 11.7435 4.26882C12.4395 4.37718 13.099 4.65219 13.6658 5.07042C13.9388 5.27185 14.1807 5.51619 14.5271 5.86603C14.5424 5.88154 14.558 5.89726 14.5738 5.91319C14.9847 6.32801 15.1247 6.46589 15.2717 6.57431C15.605 6.82026 15.9928 6.98198 16.4021 7.0457C16.5825 7.07379 16.779 7.07628 17.3629 7.07628L18.2472 7.07628C19.76 7.07625 20.9827 7.07624 21.9486 7.20095C22.9515 7.33045 23.8056 7.60765 24.4991 8.2577C24.5679 8.32219 24.6346 8.38889 24.6991 8.4577C25.3492 9.15126 25.6264 10.0053 25.7559 11.0082C25.8806 11.9741 25.8806 13.1968 25.8805 14.7096V15.972C25.8806 17.5519 25.8806 18.8286 25.7455 19.8334C25.6051 20.878 25.3039 21.7625 24.6007 22.4657C23.8976 23.1689 23.013 23.47 21.9684 23.6104C20.9636 23.7455 19.6869 23.7455 18.1071 23.7455H10.8946C9.31474 23.7455 8.03804 23.7455 7.0332 23.6104C5.9886 23.47 5.10409 23.1689 4.4009 22.4657C3.69771 21.7625 3.39659 20.878 3.25615 19.8334C3.12105 18.8285 3.12107 17.5519 3.12109 15.972L3.12109 11.0664C3.12108 9.9238 3.12107 8.99993 3.1945 8.25706C3.27035 7.48975 3.43145 6.81931 3.81672 6.22091C4.15446 5.69634 4.60062 5.25018 5.12519 4.91244C5.72359 4.52717 6.39404 4.36607 7.16135 4.29022C7.90421 4.21679 8.82808 4.2168 9.9707 4.21681L10.5058 4.21681C10.5282 4.21681 10.5503 4.21681 10.5722 4.21681Z"/>
</svg>
