<svg width="29" height="28" viewBox="0 0 29 28" fill="none" xmlns="http://www.w3.org/2000/svg">
<path fill-rule="evenodd" clip-rule="evenodd" d="M4.89123 10.9808C4.62395 11.869 4.48053 12.8093 4.48053 13.7819C4.48053 14.7545 4.62395 15.6947 4.89123 16.583H9.2529C9.14574 15.7175 9.08647 14.7847 9.08647 13.7819C9.08647 12.7791 9.14574 11.8462 9.2529 10.9808H4.89123ZM5.73591 9.00219H9.60309C10.0668 7.02322 10.7941 5.49005 11.5821 4.35761C9.07391 5.1016 6.98487 6.79111 5.73591 9.00219ZM14.4654 4.12102C13.6375 4.75889 12.3711 6.26803 11.64 9.00219H17.2908C16.5598 6.26803 15.2934 4.75889 14.4654 4.12102ZM17.6842 10.9808H11.2467C11.1311 11.8263 11.065 12.758 11.065 13.7819C11.065 14.8057 11.1311 15.7374 11.2467 16.583H17.6842C17.7998 15.7374 17.8658 14.8057 17.8658 13.7819C17.8658 12.758 17.7998 11.8263 17.6842 10.9808ZM19.678 16.583C19.7851 15.7175 19.8444 14.7847 19.8444 13.7819C19.8444 12.7791 19.7851 11.8462 19.678 10.9808H24.0403C24.307 11.8677 24.4504 12.8076 24.4504 13.7819C24.4504 14.7562 24.307 15.696 24.0403 16.583H19.678ZM17.2908 18.5616H11.64C12.3711 21.2957 13.6375 22.8049 14.4654 23.4427C15.2934 22.8049 16.5598 21.2957 17.2908 18.5616ZM11.5821 23.2061C10.7941 22.0737 10.0668 20.5405 9.60309 18.5616L5.73591 18.5616C6.98487 20.7726 9.07391 22.4622 11.5821 23.2061ZM17.349 23.2058C18.1369 22.0734 18.8642 20.5403 19.3278 18.5616H23.1957C21.9465 20.7725 19.8565 22.4617 17.349 23.2058ZM23.1957 9.00219H19.3278C18.8642 7.0234 18.1369 5.49034 17.349 4.35793C19.8565 5.10204 21.9465 6.79127 23.1957 9.00219ZM2.50195 13.7819C2.50195 7.24211 7.87059 1.96289 14.4654 1.96289C19.5931 1.96289 23.9737 5.15136 25.6739 9.64115C26.1623 10.9309 26.4289 12.3267 26.4289 13.7819C26.4289 15.2371 26.1623 16.6328 25.6739 17.9226C23.9737 22.4124 19.5931 25.6009 14.4654 25.6009C7.87059 25.6009 2.50195 20.3216 2.50195 13.7819Z" />
</svg>
