<svg width="29" height="28" viewBox="0 0 29 28" fill="none" xmlns="http://www.w3.org/2000/svg">
<path fill-rule="evenodd" clip-rule="evenodd" d="M22.2921 9.77815C22.2921 11.8871 21.4159 13.7908 20.0185 15.1631C19.9141 15.2656 19.8516 15.357 19.8193 15.4218C19.798 15.4645 19.7935 15.4875 19.7927 15.4936C19.792 17.5896 18.0581 19.2016 16.0282 19.2016H12.9592C10.9292 19.2016 9.19534 17.5896 9.19464 15.4936C9.19463 15.4935 9.19465 15.4936 9.19464 15.4936C9.19386 15.4875 9.18937 15.4645 9.16809 15.4218C9.13581 15.357 9.07333 15.2656 8.96889 15.1631C7.57153 13.7908 6.69531 11.8871 6.69531 9.77815C6.69531 5.51632 10.2355 2.14844 14.4937 2.14844C18.7519 2.14844 22.2921 5.51632 22.2921 9.77815ZM9.19478 15.4952C9.19475 15.4952 9.19467 15.4945 9.19464 15.4936L9.19478 15.4952ZM19.7926 15.4952C19.7926 15.4952 19.7926 15.4945 19.7927 15.4936L19.7926 15.4952ZM13.1056 23.5739C12.8931 23.4896 12.7053 23.3586 12.5558 23.194C12.326 22.941 12.1866 22.6087 12.1866 22.2448C12.1866 22.0466 12.3519 21.886 12.5558 21.886H16.4316C16.6355 21.886 16.8008 22.0466 16.8008 22.2448C16.8008 22.6087 16.6614 22.941 16.4316 23.194C16.2821 23.3586 16.0943 23.4896 15.8818 23.5739C15.7098 23.6422 15.5215 23.6798 15.3242 23.6798H13.6631C13.4659 23.6798 13.2776 23.6422 13.1056 23.5739ZM12.5558 20.086H16.4316C17.5809 20.086 18.6008 21.0045 18.6008 22.2448C18.6008 24.0795 17.0851 25.4798 15.3242 25.4798H13.6631C11.9023 25.4798 10.3866 24.0795 10.3866 22.2448C10.3866 21.0045 11.4065 20.086 12.5558 20.086ZM18.7573 13.8788C18.3126 14.3154 17.9927 14.8779 17.9927 15.4923C17.9927 16.5468 17.1132 17.4016 16.0282 17.4016H12.9592C11.8742 17.4016 10.9946 16.5468 10.9946 15.4923C10.9946 14.8779 10.6747 14.3154 10.2301 13.8788C9.15759 12.8256 8.49531 11.377 8.49531 9.77815C8.49531 6.55849 11.1809 3.94844 14.4937 3.94844C17.8065 3.94844 20.4921 6.55849 20.4921 9.77815C20.4921 11.377 19.8298 12.8256 18.7573 13.8788Z" />
</svg>
